<svg xmlns="http://www.w3.org/2000/svg" viewBox="0 0 1024 1024" width="1024" height="1024"><g transform="translate(81.92,92.00) scale(0.61091)"><path fill="#000000" fill-rule="evenodd" d="M616.00,1373.95 C577.23,1373.59 542.69,1373.23 539.25,1373.15 L533.00,1373.00 L533.00,1368.23 C533.00,1357.23 540.87,1337.98 551.60,1322.75 C558.00,1313.66 570.59,1302.51 580.00,1297.60 C587.67,1293.59 612.51,1285.43 621.32,1284.03 C632.13,1282.31 661.60,1281.03 690.69,1281.01 C709.02,1281.01 719.11,1280.64 719.52,1279.97 C719.87,1279.40 716.81,1274.56 712.72,1269.22 C693.65,1244.32 679.04,1216.82 672.75,1194.00 C663.24,1159.53 663.55,1161.73 663.68,1130.00 L663.79,1101.50 L667.81,1084.00 C672.78,1062.31 677.17,1049.76 686.49,1030.50 C706.25,989.68 740.73,955.82 784.37,934.40 C812.31,920.68 832.02,915.28 859.00,913.93 C893.85,912.19 917.15,914.28 939.50,921.14 C955.34,926.01 985.94,940.14 994.68,946.64 C998.31,949.33 1000.00,949.63 1000.00,947.58 C1000.00,944.40 965.59,915.73 952.50,908.01 C950.30,906.71 946.20,904.15 943.39,902.32 C932.97,895.54 907.79,886.14 885.00,880.54 C866.69,876.05 855.73,874.76 834.50,874.62 C816.85,874.50 816.11,874.58 796.50,878.80 C785.50,881.16 772.97,884.25 768.66,885.66 C757.19,889.41 724.69,905.97 716.00,912.50 C711.88,915.59 706.48,919.64 704.00,921.50 C691.12,931.17 665.33,959.51 657.94,972.12 C653.42,979.84 646.38,989.00 644.98,989.00 C644.44,989.00 630.74,982.48 614.52,974.50 C598.30,966.53 584.76,960.00 584.43,960.00 C584.11,960.00 574.31,955.32 562.67,949.59 C551.03,943.86 530.70,934.14 517.50,927.97 C504.30,921.81 487.20,913.72 479.50,909.99 C446.84,894.17 425.52,884.70 421.56,884.25 C412.82,883.27 402.64,891.76 394.66,906.67 C392.11,911.45 390.16,915.49 390.33,915.66 C390.49,915.83 409.41,916.34 432.35,916.81 C469.71,917.56 474.26,917.83 475.79,919.36 C477.34,920.91 477.50,924.37 477.50,955.99 C477.50,983.30 477.22,991.18 476.20,992.20 C474.27,994.13 3.73,994.13 1.80,992.20 C0.78,991.18 0.50,983.19 0.50,955.37 C0.50,921.36 0.58,919.78 2.44,918.42 C4.10,917.21 31.54,916.99 191.94,916.90 C295.10,916.85 380.62,916.46 382.00,916.05 C384.02,915.45 383.35,915.16 378.50,914.57 C375.20,914.17 371.71,913.62 370.75,913.35 C368.27,912.66 368.56,908.64 371.62,901.50 C376.83,889.31 377.94,886.08 377.07,885.54 C375.41,884.52 367.38,894.79 361.94,904.92 L356.50,915.04 L338.21,914.77 C323.25,914.55 319.75,914.23 318.98,913.00 C316.53,909.13 318.53,889.26 322.58,877.14 C329.34,856.91 347.13,839.05 367.60,831.95 C386.54,825.37 394.71,824.87 494.89,824.15 L584.28,823.50 L586.24,820.88 C588.20,818.26 598.78,794.71 603.93,781.50 C606.77,774.23 629.52,729.91 632.84,725.19 C638.34,717.36 655.22,683.98 663.02,665.50 C673.09,641.65 679.78,621.48 678.62,618.46 C677.73,616.12 676.85,617.05 671.08,626.47 C659.88,644.72 642.87,663.53 626.50,675.75 C619.44,681.03 601.00,690.79 589.00,695.62 C577.58,700.21 558.82,705.03 548.00,706.16 C541.71,706.81 528.69,707.02 515.50,706.68 C491.93,706.07 477.12,704.09 451.28,698.11 C434.36,694.20 430.04,693.38 413.54,690.98 C396.32,688.48 385.25,684.78 376.67,678.66 C367.29,671.97 366.26,668.88 367.83,652.22 C370.73,621.50 374.94,599.59 383.66,570.00 C391.01,545.01 393.03,539.67 400.81,524.52 C409.30,507.96 418.69,495.51 433.64,480.96 C449.62,465.42 459.60,458.25 478.00,449.11 C494.60,440.86 506.82,436.42 522.00,433.09 C535.52,430.13 540.82,428.58 542.19,427.21 C543.13,426.27 542.97,424.84 541.47,420.75 C539.80,416.19 539.55,412.68 539.53,394.00 C539.50,372.56 539.51,372.47 542.69,362.50 C551.96,333.38 559.45,319.41 577.55,297.50 C586.76,286.36 597.76,275.35 608.90,266.13 C621.14,256.00 622.47,257.73 618.51,278.61 C612.40,310.86 608.71,321.24 597.12,338.89 C590.89,348.39 580.03,372.67 574.47,389.57 C570.32,402.17 568.00,413.27 568.00,420.48 C568.00,425.63 568.21,426.13 570.75,427.12 C574.51,428.59 586.17,427.48 587.61,425.51 C588.23,424.67 589.28,420.51 589.96,416.25 C591.72,405.23 597.54,382.54 601.65,370.64 C610.69,344.46 631.58,313.56 654.19,292.92 C670.24,278.27 689.68,264.34 691.51,266.18 C691.71,266.37 691.46,274.85 690.97,285.01 C689.78,309.44 689.79,376.11 690.99,397.50 C692.61,426.55 699.07,472.80 703.63,487.94 C715.10,526.05 716.91,530.91 727.40,551.99 C740.57,578.45 754.13,597.90 772.99,617.38 C791.54,636.54 814.30,654.27 831.00,662.57 C841.66,667.86 855.68,674.00 857.13,674.00 C858.77,674.00 899.20,693.21 906.00,697.22 C909.58,699.33 914.75,702.16 917.50,703.50 C930.90,710.05 959.58,730.03 979.32,746.55 C998.28,762.43 1012.72,776.18 1027.55,792.50 C1053.58,821.14 1060.34,830.01 1078.98,860.00 C1100.00,893.81 1120.52,948.70 1127.40,989.50 C1132.63,1020.58 1133.46,1030.61 1133.43,1062.50 C1133.41,1090.92 1133.18,1095.08 1130.66,1112.50 C1127.20,1136.50 1121.67,1164.23 1118.64,1172.86 C1117.36,1176.51 1114.25,1185.35 1111.74,1192.50 C1104.24,1213.87 1090.98,1242.07 1080.77,1258.36 C1077.97,1262.84 1073.68,1269.88 1071.24,1274.00 C1065.26,1284.11 1046.56,1308.82 1033.87,1323.40 C1020.35,1338.91 1018.67,1341.00 1019.77,1341.00 C1021.84,1341.00 1037.77,1326.47 1058.55,1305.62 C1081.12,1282.98 1091.24,1270.69 1107.82,1245.83 C1119.43,1228.43 1141.09,1189.47 1145.82,1177.50 C1146.90,1174.75 1149.62,1168.12 1151.85,1162.77 C1156.59,1151.41 1170.36,1107.40 1172.49,1096.79 C1173.30,1092.78 1174.98,1082.53 1176.23,1074.00 C1178.33,1059.66 1178.50,1055.11 1178.50,1013.00 C1178.50,950.12 1178.03,946.80 1161.39,892.81 C1158.39,883.07 1153.93,870.60 1151.49,865.09 C1146.06,852.83 1134.70,830.06 1131.44,824.91 C1130.13,822.83 1127.09,817.58 1124.69,813.24 C1117.76,800.70 1094.72,770.03 1079.89,753.59 C1042.63,712.27 997.03,677.42 948.80,653.38 C933.54,645.78 909.30,630.10 894.50,618.26 C843.63,577.57 807.07,529.62 782.41,471.25 C770.39,442.80 768.29,435.89 761.98,404.03 C753.14,359.38 752.66,330.04 760.00,284.39 C762.41,269.41 766.36,250.61 768.91,242.00 C774.01,224.76 785.56,196.82 792.86,184.09 C795.56,179.37 798.94,173.17 800.37,170.33 C804.80,161.47 818.35,142.04 829.20,129.00 C850.77,103.08 874.14,80.87 896.59,64.93 C924.01,45.49 959.17,27.86 992.50,16.86 C1029.57,4.62 1085.23,-1.50 1124.00,2.40 C1153.01,5.32 1186.66,11.80 1197.72,16.59 C1199.80,17.49 1202.85,18.58 1204.50,19.02 C1206.15,19.45 1209.75,20.73 1212.50,21.85 C1215.25,22.97 1221.78,25.55 1227.00,27.57 C1232.22,29.59 1240.33,33.29 1245.00,35.77 C1280.39,54.60 1297.12,66.51 1321.88,90.50 C1377.10,144.00 1406.98,213.55 1407.00,288.66 C1407.00,315.26 1405.20,326.50 1396.88,351.60 C1388.40,377.19 1381.67,391.24 1368.86,410.06 C1354.74,430.81 1333.81,451.98 1314.93,464.58 C1295.60,477.48 1266.49,489.44 1242.90,494.17 C1232.74,496.20 1228.57,496.46 1204.50,496.48 C1178.26,496.50 1177.19,496.42 1166.50,493.73 C1147.91,489.04 1139.94,486.09 1128.51,479.67 C1107.11,467.65 1091.29,453.75 1080.45,437.47 C1070.26,422.16 1061.49,398.19 1059.98,381.50 C1058.19,361.89 1058.65,354.37 1062.44,341.34 C1068.15,321.72 1074.79,308.82 1085.53,296.51 C1094.29,286.46 1096.80,281.00 1092.65,281.00 C1090.57,281.00 1075.64,293.52 1068.08,301.62 C1052.82,317.96 1040.62,337.46 1034.68,355.00 C1025.10,383.26 1021.91,410.52 1025.54,433.00 C1027.34,444.13 1033.86,470.45 1037.34,480.57 C1042.21,494.78 1058.63,522.58 1071.68,538.71 C1086.70,557.28 1112.55,579.00 1138.77,595.09 C1171.81,615.36 1190.42,629.55 1213.37,651.97 C1246.33,684.19 1268.12,712.49 1290.97,752.78 C1296.01,761.68 1302.16,774.03 1304.64,780.23 C1307.11,786.43 1311.55,796.90 1314.50,803.50 C1320.08,815.98 1321.31,819.95 1327.90,846.50 C1337.64,885.74 1340.06,905.06 1340.72,948.80 C1341.51,1002.07 1338.57,1029.27 1327.55,1070.52 C1320.73,1096.01 1314.77,1114.96 1312.35,1118.79 C1311.56,1120.04 1308.45,1127.19 1305.45,1134.67 C1299.68,1149.05 1287.35,1172.25 1275.78,1190.47 C1260.40,1214.72 1240.63,1238.41 1214.40,1264.02 C1194.61,1283.34 1182.78,1292.84 1159.10,1308.44 C1136.85,1323.10 1128.09,1328.20 1113.50,1335.03 C1107.45,1337.86 1100.47,1341.23 1098.00,1342.51 C1092.46,1345.37 1080.15,1350.34 1069.50,1354.01 C1065.10,1355.52 1057.90,1358.12 1053.50,1359.78 C1042.37,1363.97 1025.87,1367.49 1003.00,1370.55 C984.09,1373.07 981.20,1373.18 907.00,1374.01 C822.15,1374.96 722.74,1374.94 616.00,1373.95 Z M84.91,1372.34 L81.32,1371.90 L80.66,1332.79 C79.84,1284.44 79.99,1067.65 80.86,1033.30 C81.33,1014.66 81.84,1007.76 82.80,1006.80 C84.67,1004.93 121.33,1004.93 123.20,1006.80 C124.26,1007.85 124.55,1042.13 124.75,1188.80 C124.91,1302.04 124.65,1370.05 124.05,1370.98 C123.28,1372.18 119.86,1372.49 105.80,1372.62 C96.28,1372.70 86.89,1372.58 84.91,1372.34 Z M405.00,1372.38 C398.22,1371.18 398.29,1371.24 397.61,1366.14 C396.76,1359.70 396.77,1017.31 397.62,1011.96 C398.13,1008.76 398.86,1007.62 400.86,1006.86 C404.79,1005.37 438.58,1006.17 440.20,1007.80 C442.52,1010.12 443.15,1063.07 442.72,1219.31 C442.33,1358.14 442.18,1369.25 440.61,1370.81 C439.19,1372.24 436.47,1372.53 423.21,1372.66 C414.57,1372.75 406.38,1372.63 405.00,1372.38 Z M36.12,899.64 C34.57,897.78 35.36,895.82 51.50,861.00 C63.35,835.44 76.64,804.95 82.44,790.00 C85.49,782.17 94.00,755.95 94.00,754.41 C94.00,753.60 95.19,750.59 96.65,747.72 C98.10,744.85 101.02,737.37 103.13,731.10 C106.99,719.62 109.25,715.00 111.00,715.00 C112.60,715.00 114.65,720.06 116.89,729.50 C119.64,741.09 127.77,784.40 128.91,793.50 C129.39,797.35 130.50,802.30 131.37,804.50 C132.25,806.70 135.65,821.55 138.92,837.50 C142.20,853.45 146.04,871.45 147.44,877.50 C150.99,892.75 151.67,898.96 149.90,900.08 C149.13,900.57 123.47,900.98 92.87,900.98 C47.20,901.00 37.04,900.76 36.12,899.64 Z M174.50,857.50 C168.34,855.32 163.47,849.42 161.17,841.35 C158.07,830.51 154.00,813.24 153.96,810.76 C153.93,809.52 153.25,806.70 152.44,804.50 C151.63,802.30 149.61,793.98 147.95,786.00 C143.08,762.69 135.86,727.10 134.41,719.27 C133.67,715.30 132.39,709.67 131.55,706.77 C130.72,703.87 126.85,685.52 122.96,666.00 C119.07,646.48 114.60,625.33 113.02,619.00 C111.44,612.67 107.64,594.23 104.57,578.00 C101.50,561.77 98.33,546.25 97.54,543.50 C94.91,534.47 94.10,530.74 89.99,509.00 C87.75,497.18 84.75,482.10 83.31,475.50 C81.87,468.90 80.28,461.02 79.79,458.00 C79.30,454.98 78.05,449.57 77.02,446.00 C74.25,436.43 69.54,411.48 66.49,390.21 C65.19,381.16 65.10,378.21 66.06,375.33 C67.90,369.74 73.41,364.36 79.70,362.01 C86.23,359.57 104.03,357.41 109.37,358.41 C114.58,359.39 120.52,365.65 124.50,374.37 C128.04,382.14 134.00,402.13 134.00,406.27 C134.00,410.54 146.79,476.14 151.50,496.00 C153.91,506.18 157.71,524.40 159.93,536.50 C162.16,548.60 165.54,565.02 167.44,573.00 C169.35,580.98 173.87,602.58 177.49,621.00 C184.40,656.22 184.96,658.78 187.31,666.00 C188.11,668.48 189.70,675.67 190.83,682.00 C195.00,705.38 199.01,725.79 201.42,736.00 C210.38,773.93 217.15,808.73 219.13,827.00 C220.19,836.71 220.13,838.38 218.59,842.40 C216.42,848.09 211.77,852.19 204.37,854.96 C193.16,859.16 181.89,860.11 174.50,857.50 Z M526.97,579.33 C534.75,575.45 543.97,565.93 548.08,557.52 C551.34,550.86 551.50,550.04 551.50,539.52 C551.50,524.56 548.56,517.71 537.28,506.44 C530.53,499.69 525.46,497.69 514.86,497.58 L506.23,497.50 L497.62,503.34 C487.43,510.25 481.78,516.30 477.87,524.50 C475.27,529.93 475.00,531.50 475.01,541.00 C475.01,553.94 475.84,556.96 481.36,564.29 C487.10,571.93 492.40,575.67 502.32,579.13 C513.07,582.87 519.76,582.92 526.97,579.33 Z"/></g></svg>